<?xml version="1.0" encoding="UTF-8" standalone="no"?>
<!DOCTYPE svg PUBLIC "-//W3C//DTD SVG 1.1//EN" "http://www.w3.org/Graphics/SVG/1.1/DTD/svg11.dtd">
<svg width="100%" height="100%" viewBox="0 0 556 229" version="1.1" xmlns="http://www.w3.org/2000/svg" xmlns:xlink="http://www.w3.org/1999/xlink" xml:space="preserve" xmlns:serif="http://www.serif.com/" style="fill-rule:evenodd;clip-rule:evenodd;stroke-linejoin:round;stroke-miterlimit:2;">
    <g transform="matrix(1,0,0,1,-266.999595,-307.956537)">
        <g id="Background" transform="matrix(1,0,0,1,267,308)">
            <path d="M553.769,188.502C552.639,189.743 553.269,191.06 549.491,191.121C546.528,191.168 539.758,191.411 534.613,189.235C524.403,184.918 522.711,179.566 521.355,174.546C519.68,168.347 516.493,178.895 501.268,186.042C467.574,201.859 441.756,178.886 438.632,176.332C426.675,166.56 421.669,147.139 421.206,141.524C417.004,90.646 469.35,68.17 500.654,84.206C512.559,90.304 516.369,95.23 517.605,96.362C521.7,100.113 519.128,85.564 520.199,82.392C520.464,81.607 520.949,80.173 530.457,80.984C533.033,81.204 532.727,86.246 532.64,91.503C532.575,95.502 532.256,114.88 532.476,141.5C532.677,165.825 531.014,173.201 538.743,177.037C545.782,180.53 550.634,176.535 552.94,180.407C554.099,182.352 553.766,182.471 553.769,188.502ZM480.484,91.975C481.081,92.047 495.832,92.266 508.2,104.796C521.336,118.106 525.285,140.554 513.874,157.765C492.596,189.858 460.092,177.644 450.538,169.458C442.623,162.676 432.056,153.034 433.744,130.519C434.778,116.724 443.028,108.007 444.476,106.477C459.405,90.701 475.283,92.103 480.484,91.975Z" style="fill:#F2C052;"/>
            <path d="M517.927,93.842C517.986,93.24 518.035,92.561 518.036,91.972C518.039,88.168 517.733,83.444 518.304,81.752C518.381,81.523 518.477,81.27 518.632,81.003L519.16,80.315C519.559,79.914 520.19,79.463 521.35,79.156C522.799,78.772 525.495,78.553 530.627,78.991C532.152,79.121 533.26,79.992 533.927,81.589C534.785,83.645 534.706,87.53 534.64,91.536C534.574,95.531 534.256,114.89 534.476,141.484C534.576,153.552 534.204,161.416 534.775,166.739C535.256,171.225 536.4,173.642 539.632,175.246C543.491,177.16 546.641,176.535 548.99,176.554C551.471,176.574 553.324,177.142 554.659,179.383C555.966,181.578 555.766,181.694 555.769,188.501C555.769,189 555.583,189.481 555.248,189.849C554.881,190.252 554.769,190.681 554.539,191.034C553.892,192.027 552.97,193.065 549.523,193.121C546.397,193.171 539.262,193.373 533.834,191.077C522.806,186.414 520.929,180.622 519.458,175.194C518.972,175.601 518.415,176.128 517.768,176.741C514.759,179.591 509.991,184.156 502.118,187.852C467.292,204.201 440.596,180.52 437.366,177.881C424.929,167.716 419.695,147.53 419.212,141.688C414.86,88.997 469.145,65.818 501.566,82.426C511.486,87.507 515.929,91.791 517.927,93.842ZM530.145,82.964C526.648,82.672 524.468,82.689 523.094,82.883C522.658,82.945 522.25,83.072 522.062,83.136C521.842,83.923 521.892,85.387 521.929,87.036C522,90.239 522.174,94.013 521.72,96.036C521.564,96.732 521.33,97.287 521.063,97.688L520.586,98.25L519.869,98.732L518.97,98.967L518.1,98.899C517.59,98.78 516.956,98.48 516.254,97.837C515.05,96.734 511.342,91.927 499.743,85.986C469.554,70.522 419.147,92.296 423.199,141.359C423.644,146.749 428.421,165.404 439.898,174.784C442.917,177.251 467.857,199.517 500.418,184.231C507.619,180.851 512.024,176.673 514.84,174.005C516.243,172.676 517.325,171.691 518.156,171.212C518.517,171.004 518.856,170.864 519.168,170.78L520.041,170.67L520.854,170.805L521.597,171.171C522.203,171.588 522.857,172.438 523.285,174.024C524.522,178.6 526.086,183.458 535.392,187.393C540.254,189.449 546.658,189.166 549.459,189.121C550.022,189.112 550.46,189.074 550.805,189.001C550.97,188.965 551.089,188.961 551.158,188.893C551.33,188.722 551.383,188.494 551.502,188.278C551.584,188.13 551.672,187.98 551.77,187.83C551.778,185.821 551.82,184.542 551.81,183.628C551.799,182.583 551.699,182.231 551.222,181.431C550.895,180.882 550.448,180.688 549.909,180.612C549.25,180.52 548.507,180.552 547.682,180.579C545.043,180.665 541.755,180.764 537.854,178.829C533.356,176.597 531.468,173.408 530.798,167.165C530.218,161.76 530.577,153.773 530.476,141.517C530.256,114.87 530.575,95.473 530.641,91.47C530.682,88.942 530.787,86.465 530.562,84.594C530.507,84.142 530.434,83.733 530.325,83.381C530.283,83.245 530.196,83.065 530.145,82.964ZM480.722,89.989C481.344,90.064 496.72,90.319 509.623,103.391C523.382,117.331 527.492,140.845 515.541,158.871C493.274,192.455 459.235,179.544 449.236,170.976C440.984,163.905 429.99,153.844 431.75,130.369C432.837,115.873 441.502,106.71 443.023,105.102C458.543,88.702 475.029,90.108 480.435,89.976C480.531,89.974 480.627,89.978 480.722,89.989ZM480.476,93.976L480.465,93.976C475.4,94.084 460.202,92.768 445.928,107.852C444.554,109.304 436.72,117.576 435.739,130.668C434.122,152.225 444.261,161.446 451.839,167.939C460.949,175.745 491.918,187.261 512.207,156.66C523.077,140.264 519.291,118.881 506.776,106.201C495.622,94.9 482.43,94.089 480.476,93.976Z" style="fill:#F2C052;"/>
            <path d="M2,125.507C2.122,124.848 2.28,124.902 4.788,117.61C20.317,72.464 77.489,67.322 103.097,101.824C105.345,104.854 110.186,113.601 110.187,113.604C111.871,117.818 89.55,139.279 80.255,145.115C43.712,168.059 34.414,164.823 30.765,166.925C26.027,169.655 57.785,188.698 81.702,171.81C93.687,163.347 93.825,158.219 96.712,160.039C97.311,160.417 103.393,164.251 104.138,164.842C107.256,167.317 88.714,188.181 66.564,190.984C40.76,194.25 10.925,180.917 3.398,146.521C3.051,144.932 2.816,145.064 2.199,143.522C2.171,142.081 2.251,142.09 2,125.507ZM33.435,153.221C22.484,155.952 20.24,157.867 17.684,151.429C14.327,142.974 11.147,123.183 24.681,107.653C42.675,87.006 71.196,87.793 88.712,104.275C96.977,112.052 95.058,114.66 94.462,115.471C92.612,117.986 86.289,123.853 85.543,124.546C65.806,142.863 45.45,149.402 41.554,150.653C37.462,151.967 37.519,152.001 33.435,153.221Z" style="fill:#F2C052;"/>
            <path d="M32.883,168.24C33.626,168.984 34.753,169.81 36.178,170.656C44.966,175.871 64.589,181.445 80.549,170.176C88.884,164.29 91.445,160.02 93.219,158.613C93.976,158.013 94.688,157.737 95.397,157.683L96.066,157.699L96.699,157.836C97.037,157.942 97.396,158.106 97.779,158.347C98.392,158.734 104.618,162.67 105.382,163.276L105.837,163.73L106.172,164.264L106.433,165.091L106.478,165.86C106.44,166.705 106.073,167.876 105.287,169.241C101.27,176.213 85.261,190.634 66.815,192.968C40.11,196.348 9.234,182.547 1.444,146.948C1.132,145.521 0.896,145.65 0.342,144.265C0.252,144.04 0.204,143.801 0.199,143.56C0.172,142.118 0.251,142.127 -0,125.537C-0.002,125.405 0.009,125.272 0.033,125.141C0.16,124.46 0.301,124.507 2.897,116.96C18.977,70.209 78.185,64.904 104.703,100.632C107.035,103.775 112.043,112.858 112.044,112.861L112.255,113.717C112.293,114.065 112.283,114.454 112.21,114.881C112.029,115.931 111.38,117.369 110.284,119.037C105.023,127.045 88.915,142.039 81.318,146.809C55.352,163.112 42.919,166.354 36.537,167.587C34.941,167.895 33.772,168.022 32.883,168.24ZM102.334,166.014C100.695,164.908 96.392,162.201 95.695,161.763C95.614,161.827 95.516,161.908 95.439,161.98C95.059,162.34 94.632,162.819 94.108,163.404C92.157,165.581 89.032,169.082 82.856,173.444C62.768,187.628 37.413,177.618 30.621,171.6C29.183,170.326 28.477,169.079 28.332,168.189L28.31,167.353L28.564,166.465L29.096,165.708L29.766,165.192C30.654,164.681 31.802,164.383 33.448,164.084C38.786,163.117 50.391,161.504 79.191,143.421C85.577,139.412 98.218,127.879 104.666,119.908C106.221,117.985 107.409,116.294 107.996,114.989C108.112,114.73 108.212,114.374 108.255,114.212C107.648,113.124 103.494,105.716 101.491,103.016C76.793,69.74 21.656,74.719 6.679,118.261C4.49,124.626 4.138,125.184 4.003,125.703L4.003,125.705C4.227,140.552 4.183,141.913 4.194,143.114C4.769,144.468 4.996,144.467 5.352,146.093C12.616,179.288 41.411,192.152 66.313,189C81.243,187.11 94.464,176.688 100.027,169.794C101.124,168.436 102,166.71 102.334,166.014ZM33.919,155.161C29.463,156.273 26.422,157.244 24.213,157.599C21.96,157.961 20.36,157.713 19.04,156.839C17.832,156.04 16.796,154.613 15.825,152.167C12.31,143.315 9.004,122.598 23.173,106.339C41.976,84.764 71.779,85.596 90.082,102.818C96.768,109.11 97.306,112.71 97.019,114.483C96.843,115.573 96.369,116.253 96.073,116.656C94.168,119.245 87.672,125.299 86.904,126.012C66.832,144.64 46.128,151.285 42.165,152.557C38.054,153.878 38.111,153.912 34.007,155.137L33.919,155.161ZM32.905,151.291C36.927,150.09 36.885,150.052 40.942,148.749C44.772,147.519 64.781,141.087 84.183,123.08C84.907,122.408 91.055,116.726 92.851,114.286C93.033,114.038 93.266,113.468 92.667,112.19C91.948,110.655 90.375,108.587 87.341,105.731C70.613,89.99 43.374,89.248 26.189,108.967C13.291,123.767 16.343,142.633 19.543,150.691C20.106,152.11 20.547,153.04 21.247,153.504C21.837,153.894 22.572,153.811 23.578,153.649C25.705,153.308 28.625,152.36 32.905,151.291Z" style="fill:#F2C052;"/>
            <path d="M332.493,226.75C332.084,226.625 331.873,226.107 331.464,225.981C331.158,225.888 331.134,226.125 327.492,225.554C307.488,222.421 297.747,212.413 290.091,200.772C285.767,194.196 263.419,161.617 261.078,157.755C257.872,152.467 256.484,153.997 251.498,153.519C238.283,152.251 232.791,142.182 232.19,147.417C231.852,150.364 232.288,150.357 232.136,184.497C232.118,188.651 232.666,190.173 228.501,190.171C225.137,190.17 219.8,190.954 219.768,187.495C219.621,171.838 219.345,171.858 219.367,170.498C220.021,129.703 219.29,90.486 219.525,83.502C219.623,80.598 222.024,81.039 224.491,81.019C229.774,80.976 232.205,79.251 232.301,84.52C232.353,87.425 233.831,86.625 236.309,85.151C250.077,76.961 273.232,75.063 288.307,96.628C294.511,105.503 301.31,131.261 275.193,149.068C271.245,151.761 272.375,152.904 275.166,156.733C281.534,165.471 304.877,202.763 312.682,207.185C332.216,218.25 343.217,210.036 343.432,216.503C343.718,225.094 342.744,225.221 342.482,225.48C340.503,227.44 333.99,226.755 332.493,226.75ZM232.286,112.476C232.396,111.828 233.216,107.028 234.709,104.62C247.693,83.666 273.821,90.834 279.664,106.439C286.568,124.882 273.289,139.884 261.433,141.016C243.463,142.732 238.037,133.024 236.286,130.637C230.888,123.274 232.237,114.454 232.286,112.476Z" style="fill:#F2C052;"/>
            <path d="M234.283,83.985C234.614,83.812 234.978,83.616 235.286,83.432C249.758,74.823 274.101,72.814 289.946,95.482C296.476,104.824 303.808,131.978 276.32,150.721C275.796,151.078 275.376,151.399 275.056,151.705C274.848,151.904 274.671,152.04 274.634,152.225C274.589,152.447 274.775,152.634 274.93,152.905C275.348,153.635 275.998,154.48 276.782,155.555C281.236,161.666 293.998,181.757 303.93,194.776C307.968,200.068 311.449,204.187 313.668,205.444C326.956,212.971 336.196,211.255 340.606,211.741C342.428,211.942 343.67,212.529 344.449,213.494C345.011,214.19 345.387,215.123 345.431,216.436C345.766,226.503 344.196,226.597 343.889,226.901C343.058,227.725 341.694,228.307 340.08,228.59C337.261,229.083 333.586,228.754 332.487,228.75C332.291,228.75 332.096,228.72 331.908,228.663C331.565,228.558 331.093,228.205 330.782,227.95C330.232,227.926 329.133,227.836 327.182,227.53C306.457,224.284 296.352,213.932 288.42,201.87C284.09,195.285 261.712,162.659 259.368,158.792C258.581,157.495 257.96,156.675 257.322,156.186C256.598,155.633 255.876,155.654 254.932,155.641C253.936,155.628 252.77,155.65 251.307,155.509C244.29,154.836 239.314,151.851 236.021,149.705C235.38,149.286 234.663,148.851 234.095,148.514C233.928,150.948 234.271,154.132 234.136,184.506C234.129,186.101 234.189,187.332 234.075,188.255C233.947,189.303 233.61,190.091 233.07,190.699C232.321,191.543 231.019,192.173 228.5,192.171C226.317,192.17 223.368,192.421 221.349,191.857C219.179,191.251 217.791,189.926 217.768,187.514C217.621,171.81 217.345,171.83 217.367,170.465C218.022,129.654 217.291,90.422 217.527,83.434C217.579,81.887 218.101,80.913 218.782,80.253C219.459,79.597 220.365,79.219 221.454,79.081C222.346,78.968 223.405,79.028 224.475,79.019C226.722,79.001 228.46,78.686 229.727,78.718C231.24,78.756 232.323,79.211 233.107,80.152C233.712,80.879 234.182,82.048 234.283,83.985ZM230.05,188.016C230.078,187.835 230.139,187.411 230.147,187.092C230.163,186.375 230.132,185.513 230.136,184.488C230.289,150.146 229.863,150.153 230.203,147.189C230.296,146.378 230.497,145.792 230.73,145.378L231.173,144.774L231.828,144.265L232.602,143.978L233.335,143.922C233.796,143.944 234.349,144.081 234.977,144.376C237.535,145.576 242.77,150.672 251.689,151.528C253.395,151.691 254.67,151.611 255.741,151.663C257.266,151.738 258.486,152.04 259.753,153.01C260.676,153.716 261.651,154.842 262.788,156.718C265.126,160.574 287.444,193.106 291.762,199.673C299.142,210.894 308.52,220.558 327.801,223.578C330.507,224.002 331.063,223.951 331.322,223.956L332.049,224.069C332.388,224.173 332.854,224.519 333.165,224.773C334.348,224.83 336.435,224.961 338.359,224.784C339.464,224.682 340.538,224.59 341.075,224.059C341.086,224.048 341.101,224.034 341.117,224.019C341.163,223.851 341.259,223.468 341.313,223.047C341.468,221.829 341.542,219.844 341.433,216.569C341.425,216.33 341.432,216.139 341.336,216.005C341.174,215.781 340.847,215.812 340.469,215.756C339.811,215.658 339.022,215.632 338.104,215.615C332.824,215.518 323.856,215.813 311.697,208.925C309.233,207.529 305.234,203.079 300.75,197.202C290.8,184.159 278.012,164.033 273.549,157.911C272.449,156.402 271.602,155.261 271.147,154.297C270.659,153.261 270.53,152.332 270.714,151.429C270.956,150.236 271.856,148.923 274.066,147.416C298.811,130.544 292.546,106.183 286.668,97.774C272.364,77.311 250.395,79.098 237.331,86.87C236.072,87.619 235.006,88.183 234.212,88.372L233.156,88.472L232.312,88.292L231.424,87.745L230.825,86.974C230.546,86.465 230.321,85.692 230.301,84.556C230.291,84.026 230.257,83.584 230.187,83.217C230.158,83.065 230.091,82.871 230.054,82.772C229.847,82.758 229.158,82.716 228.639,82.755C227.518,82.839 226.145,83.005 224.508,83.019C223.788,83.025 223.075,82.989 222.426,83.014C222.202,83.022 221.989,83.038 221.791,83.075C221.732,83.086 221.645,83.113 221.59,83.131C221.57,83.22 221.529,83.416 221.524,83.569C221.289,90.551 222.021,129.751 221.367,170.53C221.345,171.886 221.622,171.867 221.768,187.476C221.77,187.729 221.953,187.837 222.161,187.918C222.454,188.031 222.791,188.099 223.152,188.148C224.827,188.373 226.9,188.171 228.502,188.171C228.995,188.172 229.405,188.15 229.745,188.093C229.841,188.077 229.966,188.042 230.05,188.016ZM230.314,112.139C230.435,111.431 231.377,106.199 233.008,103.567C247.028,80.943 275.229,88.889 281.537,105.738C289.001,125.676 274.44,141.783 261.624,143.007C252.012,143.925 245.768,141.722 241.679,139.036C237.568,136.335 235.615,133.103 234.674,131.819C228.901,123.948 230.234,114.541 230.286,112.426C230.289,112.33 230.298,112.234 230.314,112.139ZM234.279,112.679L234.279,112.684C234.172,114.8 233.006,122.781 237.899,129.454C238.708,130.557 240.344,133.373 243.876,135.693C247.431,138.029 252.885,139.823 261.243,139.025C272.139,137.984 284.136,124.09 277.791,107.14C272.414,92.778 248.359,86.389 236.409,105.674C235.131,107.735 234.438,111.742 234.279,112.679Z" style="fill:#F2C052;"/>
            <path d="M347.502,1.957C348.554,9.338 347.402,141.597 347.857,142.293C348.495,143.269 349.207,142.982 359.377,133.372C406.683,88.664 406.464,88.465 410.591,84.596C415.382,80.105 415.945,80.879 422.502,80.86C426.708,80.848 430.055,80.469 430.583,81.479C431.147,82.557 416.31,95.451 414.384,97.387C397.639,114.221 397.112,113.617 382.873,127.864C380.18,130.557 381.535,131.335 383.648,132.083C397.265,136.904 399.424,140.094 410.054,156.788C429.805,187.808 431.096,187.382 430.825,189.564C430.702,190.547 430.387,191.155 418.487,190.671C415.419,190.547 412.745,183.989 409.736,179.361C390.277,149.434 389.981,143.318 370.504,142.395C368.247,142.289 367.361,141.494 349.566,158.57C347.952,160.119 347.301,160.743 348.07,186.495C348.202,190.885 346.507,190.833 337.494,190.607C334.656,190.536 335.121,187.788 335.127,185.497C335.3,119.178 334.681,7.988 335.495,2.053C342.386,2.339 346.544,2.028 347.502,1.957Z" style="fill:#F2C052;"/>
            <path d="M349.776,139.456C351.396,138.103 353.932,135.766 358.003,131.918C405.314,87.205 405.095,87.007 409.224,83.137C411.394,81.102 412.827,80.061 414.206,79.496C416.217,78.671 418.165,78.872 422.496,78.86C425.581,78.851 428.225,78.679 429.723,78.924C430.39,79.033 430.915,79.226 431.299,79.455L431.864,79.889L432.355,80.552L432.595,81.432L432.487,82.262C432.347,82.708 431.78,83.61 430.777,84.709C427.191,88.64 417.349,97.242 415.802,98.797C399.055,115.633 398.528,115.029 384.288,129.277C384.072,129.493 383.868,129.74 383.706,129.952C383.904,130.038 384.125,130.131 384.315,130.198C398.421,135.192 400.73,138.42 411.741,155.714C425.59,177.465 430.377,183.782 431.91,186.363C432.94,188.097 432.937,188.783 432.809,189.811L432.624,190.606L432.188,191.366L431.502,191.972C431.235,192.142 430.878,192.313 430.379,192.448C429.052,192.807 425.925,192.975 418.405,192.67C417.029,192.614 415.623,191.833 414.323,190.383C412.241,188.06 410.222,183.778 408.059,180.451C400.307,168.528 395.611,160.397 391.522,154.877C385.782,147.126 381.303,144.909 370.409,144.393C369.577,144.354 369.024,144.257 367.014,145.674C364.323,147.57 359.725,151.593 350.951,160.013C350.365,160.575 350.113,161.018 349.919,163.606C349.653,167.143 349.688,173.676 350.07,186.435C350.126,188.314 349.817,189.597 349.192,190.499C348.526,191.463 347.482,192.146 345.73,192.453C344.039,192.75 341.419,192.706 337.443,192.606C336.159,192.574 335.271,192.171 334.627,191.622C333.958,191.05 333.524,190.28 333.3,189.355C333.029,188.235 333.124,186.799 333.127,185.492C333.3,119.077 332.698,7.724 333.514,1.781C333.654,0.76 334.548,0.012 335.578,0.055C342.336,0.335 346.414,0.032 347.353,-0.038C348.403,-0.116 349.334,0.632 349.482,1.674C350.431,8.331 349.61,116.337 349.765,138.38C349.768,138.758 349.771,139.119 349.776,139.456ZM337.244,188.568C337.314,188.582 337.444,188.605 337.544,188.608C340.988,188.694 343.313,188.77 344.856,188.543C345.353,188.469 345.723,188.484 345.902,188.224C346.154,187.86 346.094,187.313 346.071,186.554C345.603,170.876 345.675,164.377 346.144,161.346C346.568,158.606 347.293,157.979 348.181,157.127C357.201,148.471 361.944,144.353 364.709,142.404C368.156,139.976 369.173,140.33 370.598,140.398C383.077,140.989 388.161,143.618 394.737,152.496C398.859,158.061 403.598,166.252 411.413,178.271C413.199,181.018 414.86,184.456 416.563,186.791C417.021,187.418 417.472,187.956 417.94,188.333C418.154,188.505 418.344,188.664 418.568,188.673C423.449,188.871 426.334,188.887 428.048,188.761C428.258,188.746 428.46,188.724 428.641,188.7C428.621,188.664 428.599,188.626 428.576,188.585C428.361,188.209 428.062,187.74 427.653,187.124C425.441,183.794 420.231,176.495 408.367,157.863C398.119,141.767 396.108,138.616 382.98,133.969C381.275,133.365 380.048,132.496 379.619,131.487C379.169,130.431 379.183,128.727 381.458,126.45C395.696,112.205 396.223,112.809 412.966,95.976C414.397,94.538 423.093,86.969 427.024,82.888C425.713,82.871 424.031,82.856 422.508,82.86C418.97,82.87 417.366,82.523 415.724,83.197C414.668,83.63 413.622,84.497 411.959,86.055C407.832,89.924 408.051,90.122 360.75,134.825C355.684,139.614 352.921,142.121 351.35,143.321C350.428,144.025 349.782,144.363 349.335,144.511L348.449,144.668L347.745,144.582L347.241,144.386L346.831,144.119L346.183,143.388L345.977,142.978L345.86,142.488C345.82,142.172 345.781,140.746 345.765,138.408C345.618,117.596 346.38,19.851 345.656,4.072C343.891,4.154 341.095,4.224 337.359,4.119C336.728,19.844 337.291,122.774 337.127,185.502C337.125,186.347 337.045,187.259 337.129,188.054C337.146,188.217 337.214,188.466 337.244,188.568Z" style="fill:#F2C052;"/>
            <path d="M195.004,139.51C194.31,124.804 196.97,113.266 186.633,102.373C172.487,87.468 149.941,90.29 139.927,99.942C126.98,112.421 129.801,130.387 129.8,130.503C129.451,183.93 130.164,183.909 129.687,188.527C129.446,190.87 127.657,191.026 119.481,190.765C116.523,190.67 116.843,189.235 117.045,172.493C117.362,146.288 116.923,132.921 116.967,128.499C117.355,89.855 115.983,85.752 117.07,82.347C117.325,81.547 117.889,79.779 127.457,80.864C131.217,81.29 128.962,88.64 130.144,89.866C131.06,90.817 132.302,89.712 134.283,88.206C154.522,72.825 192.408,75.522 205.08,109.658C206.219,112.727 207.777,116.926 207.577,150.5C207.346,189.338 207.368,189.291 207.313,189.402C206.503,191.048 195.546,191.076 195.171,188.574C194.978,187.283 194.934,147.691 195.004,139.51Z" style="fill:#F2C052;"/>
            <path d="M131.752,87.568C132.169,87.278 132.654,86.933 133.073,86.614C154.191,70.565 193.733,73.343 206.955,108.962C208.114,112.085 209.781,116.352 209.577,150.512C209.392,181.61 209.369,187.8 209.339,189.089L209.283,189.77L209.107,190.286L208.714,190.869L208.079,191.409C207.708,191.65 207.186,191.881 206.536,192.058C204.763,192.541 201.732,192.699 199.149,192.408C197.186,192.186 195.478,191.661 194.549,190.983L194.037,190.539L193.576,189.938L193.338,189.437L193.193,188.87C192.999,187.574 192.934,147.929 193.004,139.556L193.004,139.548C192.731,133.69 192.987,128.334 192.737,123.321C192.385,116.245 191,109.88 185.182,103.75C171.895,89.749 150.721,92.315 141.315,101.382C128.99,113.261 131.801,130.405 131.8,130.516C131.45,184.12 132.155,184.099 131.677,188.732C131.563,189.835 131.197,190.653 130.577,191.293C130.022,191.866 129.213,192.332 127.951,192.584C126.367,192.9 123.736,192.902 119.417,192.764C118.377,192.73 117.589,192.517 116.963,192.099C116.276,191.641 115.69,190.925 115.351,189.614C114.807,187.509 114.92,182.832 115.046,172.469C115.362,146.267 114.923,132.901 114.967,128.479C115.239,101.442 114.648,91.322 114.641,86.516C114.638,84.152 114.79,82.911 115.164,81.739C115.231,81.529 115.317,81.285 115.454,81.023L115.915,80.347C116.419,79.766 117.342,79.037 119.432,78.711C121.039,78.46 123.591,78.412 127.682,78.876C130.179,79.159 131.367,81.053 131.673,83.628C131.824,84.905 131.756,86.357 131.752,87.568ZM119.28,188.745C119.367,188.754 119.467,188.763 119.545,188.766C122.7,188.867 124.869,188.911 126.352,188.773C126.711,188.74 127.022,188.697 127.288,188.636C127.414,188.607 127.576,188.547 127.665,188.512C127.677,188.455 127.692,188.378 127.698,188.321C128.173,183.719 127.452,183.74 127.8,130.49C127.801,130.368 124.97,111.581 138.539,98.502C149.16,88.264 173.079,85.187 188.083,100.996C194.671,107.938 196.333,115.109 196.732,123.122C196.983,128.154 196.724,133.531 197.002,139.415C197.004,139.453 197.004,139.49 197.004,139.527C196.938,147.259 196.955,183.222 197.122,187.825C197.59,187.98 198.722,188.334 199.598,188.433C201.22,188.616 203.06,188.596 204.479,188.396C204.765,188.355 205.083,188.284 205.343,188.219C205.361,185.757 205.418,177.314 205.577,150.488C205.774,117.5 204.324,113.369 203.205,110.354C191.084,77.7 154.853,75.086 135.494,89.799C134.087,90.867 132.961,91.712 132.079,92.017L131.299,92.198L130.375,92.17L129.446,91.833L128.704,91.254L128.122,90.356C127.991,90.044 127.888,89.657 127.829,89.205C127.695,88.184 127.808,86.625 127.768,85.118C127.751,84.482 127.709,83.858 127.553,83.329C127.491,83.116 127.466,82.878 127.231,82.851C123.669,82.447 121.448,82.445 120.049,82.663C119.575,82.737 119.127,82.906 118.97,82.97C118.584,84.192 118.602,85.525 118.675,88.89C118.799,94.526 119.2,105.295 118.967,128.519C118.923,132.942 119.362,146.31 119.045,172.517C118.946,180.759 118.806,185.233 119.067,187.658C119.111,188.067 119.219,188.511 119.28,188.745Z" style="fill:#F2C052;"/>
            <path d="M308.539,73.199C304.841,72.437 304.848,72.499 304.546,72.376C281.963,63.234 288.082,34.986 307.526,31.642C335.351,26.857 344.646,73.421 308.539,73.199ZM320.707,53.543C319.196,57.442 319.918,58.072 316.332,60.193C306.291,66.131 295.327,52.368 305.576,44.607C309.918,41.32 321.7,41.479 320.707,53.543Z" style="fill:#F2C052;"/>
            <path d="M308.135,75.158C304.11,74.329 304.124,74.363 303.795,74.23C296.428,71.247 291.903,66.359 289.702,60.929C284.53,48.168 292.28,32.235 307.187,29.671C328.496,26.007 339.864,49.874 331.222,64.437C327.547,70.632 320.288,75.271 308.527,75.199C308.395,75.198 308.264,75.184 308.135,75.158ZM305.255,70.506C305.408,70.533 306.298,70.696 308.746,71.2L308.748,71.2C318.537,71.211 324.708,67.577 327.782,62.396C334.939,50.335 325.512,30.579 307.865,33.613C295.551,35.731 289.137,48.885 293.409,59.427C295.252,63.973 299.097,68.002 305.255,70.506ZM322.572,54.266C320.813,58.802 321.522,59.446 317.35,61.914C308.883,66.922 299.895,60.256 299.485,52.626C299.308,49.34 300.647,45.831 304.369,43.012C306.188,41.635 309.085,40.717 312.048,40.785C315.078,40.854 318.139,41.939 320.218,44.373C321.949,46.399 323.054,49.404 322.7,53.707C322.685,53.899 322.641,54.087 322.572,54.266ZM318.735,53.1C318.917,50.31 318.32,48.309 317.176,46.97C315.858,45.427 313.878,44.828 311.957,44.784C309.969,44.739 308.004,45.277 306.784,46.201C304.356,48.04 303.364,50.267 303.479,52.411C303.75,57.449 309.723,61.778 315.314,58.471C317.139,57.391 317.482,56.89 317.869,55.686C318.088,55.005 318.329,54.179 318.735,53.1Z" style="fill:#F2C052;"/>
            <path d="M305.802,186.495C305.929,178.149 305.959,178.219 305.947,177.5C305.608,157.293 306.025,91.013 306.072,83.493C306.092,80.354 308.671,80.655 315.506,80.891C318.627,80.999 318.517,82.315 318.442,94.499C318.367,106.805 318.52,187.501 318.475,188.497C318.389,190.439 315.796,190.64 308.5,190.491C305.594,190.432 305.991,189.442 305.802,186.495Z" style="fill:#F2C052;"/>
            <path d="M303.803,186.465C303.928,178.178 303.959,178.248 303.947,177.533C303.609,157.316 304.025,91.004 304.072,83.48C304.081,82.109 304.461,81.142 305.075,80.426C305.68,79.721 306.564,79.209 307.857,78.962C309.451,78.657 311.948,78.767 315.575,78.892C316.871,78.937 317.801,79.218 318.511,79.764C319.239,80.324 319.837,81.206 320.138,82.794C320.503,84.723 320.481,88.212 320.442,94.511C320.367,106.827 320.518,187.589 320.473,188.586L320.242,189.738L319.966,190.302L319.588,190.806C319.155,191.286 318.531,191.703 317.63,191.988C316.053,192.486 313.168,192.587 308.46,192.491C306.482,192.451 305.477,191.917 304.874,191.258L304.332,190.448C304.175,190.117 304.058,189.733 303.985,189.285C303.88,188.636 303.88,187.766 303.807,186.623C303.803,186.57 303.802,186.518 303.803,186.465ZM307.91,188.439C308.093,188.462 308.33,188.487 308.541,188.492C311.362,188.549 313.455,188.558 314.957,188.421C315.526,188.369 316.17,188.211 316.481,188.128C316.513,182.832 316.369,106.429 316.443,94.487C316.472,89.7 316.512,86.621 316.347,84.643C316.303,84.122 316.248,83.692 316.166,83.338C316.136,83.21 316.079,83.051 316.042,82.956C315.905,82.935 315.636,82.897 315.437,82.89C312.797,82.799 310.815,82.69 309.385,82.795C308.879,82.833 308.278,82.998 308.126,83.042C308.109,83.134 308.073,83.348 308.072,83.505C308.025,91.022 307.608,157.269 307.947,177.466C307.959,178.189 307.93,178.121 307.803,186.446L307.803,186.448C307.846,187.146 307.857,187.731 307.89,188.218C307.895,188.287 307.902,188.365 307.91,188.439Z" style="fill:#F2C052;"/>
        </g>
        <g id="Layer1">
        </g>
    </g>
</svg>
